# xmcd
#
# Track frame offsets:
#	150
#	15244
#	27559
#	37389
#	55180
#	66867
#	79459
#	91785
#	100264
#	111053
#	124470
#	138599
#	149511
#	157237
#	169370
#
# Disc length: 2428 seconds
#
# Revision: 0
# Processed by: cddbd v1.5.2PL0 Copyright (c) Steve Scherf et al.
# Submitted via: audiograbber 1.83.01
#
DISCID=df097a0f
DTITLE=Various Artist - Simply country love Disc 4
DYEAR=1900
DGENRE=Country
TTITLE0=Kenny Rodgers - For the good times
TTITLE1=Hank Williams and the Drifting Cowboys -Your cheatin' heart
TTITLE2=Jerry Lee Lewis - Lovesick blues
TTITLE3=Buck Owens - Country girl
TTITLE4=Don Williams and the Pozo Seco Singes - On her way to being a woman
TTITLE5=Bob Wills and his Texas Playboys - Carolina in the morning
TTITLE6=Bill Monroe and his Bluegrass Boys - No letter in the mail
TTITLE7=Boxcar Willie - Hey, good lookin'
TTITLE8=Johnny Cash - Train of love
TTITLE9=Kitty Wells - I don't claim to be an angel
TTITLE10=Rita Remington - Angel of the morning
TTITLE11=Patsy Cline - I cried all the way to the altar
TTITLE12=Dolly Parton - Puppy love
TTITLE13=Waylon Jennings - Don't thin twice, it's alright
TTITLE14=Willi Nelson - any old armd won't do
EXTD=
EXTT0=
EXTT1=
EXTT2=
EXTT3=
EXTT4=
EXTT5=
EXTT6=
EXTT7=
EXTT8=
EXTT9=
EXTT10=
EXTT11=
EXTT12=
EXTT13=
EXTT14=
PLAYORDER=
